<svg width="16" height="16" viewBox="0 0 16 16" fill="none" xmlns="http://www.w3.org/2000/svg">
<path d="M13.2386 12.0688H14.4216C14.7247 12.0688 14.9732 11.8219 14.9732 11.5172L13.2386 12.0688ZM13.2386 12.0688C13.1849 11.9643 13.1225 11.8642 13.0521 11.7698L12.6513 12.0688V12.5688H12.9039C12.9493 12.7182 12.9732 12.8745 12.9732 13.0328C12.9732 13.9172 12.2544 14.6359 11.3701 14.6359C10.4857 14.6359 9.76693 13.9172 9.76693 13.0328L13.2386 12.0688ZM13.3451 10.0016L5.58256 10.0156L5.36085 10.4672H5.11537V10.9672L5.56419 11.1875L13.3451 10.0016ZM13.3451 10.0016C13.6076 10.0016 13.8326 9.81406 13.8794 9.55469L13.3451 10.0016ZM4.66655 10.7468L4.31287 11.4672H5.11537H14.4198C14.4339 11.4672 14.4474 11.4728 14.4574 11.4827C14.4671 11.4923 14.4727 11.5052 14.4732 11.5187C14.4723 11.5457 14.449 11.5688 14.4216 11.5688H12.6513H11.6547L12.2505 12.3677C12.3938 12.5599 12.4732 12.7946 12.4732 13.0328C12.4732 13.641 11.9783 14.1359 11.3701 14.1359C10.7618 14.1359 10.2669 13.641 10.2669 13.0328V13.0324C10.2667 12.7932 10.3444 12.5605 10.4882 12.3695L11.0911 11.5688H10.0888H7.57162H6.57501L7.1708 12.3677C7.31414 12.5599 7.39349 12.7946 7.39349 13.0328C7.39349 13.641 6.8986 14.1359 6.29037 14.1359C5.68214 14.1359 5.18724 13.641 5.18724 13.0328L5.18724 13.0324C5.18703 12.7932 5.26472 12.5605 5.40856 12.3695L6.01144 11.5688H5.00912H4.02787C4.00799 11.5688 3.99122 11.5585 3.98214 11.5405L3.98216 11.5405L3.98033 11.537C3.97639 11.5293 3.97467 11.5207 3.97537 11.5121C3.97607 11.5035 3.97916 11.4952 3.9843 11.4883L3.99741 11.4706L4.00891 11.4518L5.17766 9.544L5.28097 9.37536L5.24097 9.18168L4.33316 4.78636L4.33316 4.78636L4.33279 4.78458L3.96404 3.03146L3.88052 2.63438H3.47474H1.50756C1.49388 2.63438 1.48077 2.62894 1.4711 2.61927C1.46143 2.6096 1.45599 2.59649 1.45599 2.58281C1.45599 2.56914 1.46143 2.55602 1.4711 2.54635C1.48077 2.53668 1.49388 2.53125 1.50756 2.53125H3.92162C3.93183 2.53125 3.94374 2.53486 3.95481 2.54381C3.96585 2.55274 3.97112 2.56295 3.9729 2.57145L3.97317 2.57273L4.05755 2.9696L4.14146 3.36428L4.54496 3.36562L14.4187 3.39843C14.4188 3.39843 14.4189 3.39843 14.419 3.39843C14.4256 3.39851 14.4322 3.40002 14.4383 3.40286C14.4443 3.40567 14.4496 3.40971 14.4539 3.41471C14.4608 3.42321 14.4647 3.43561 14.4622 3.44972C14.4622 3.44974 14.4622 3.44975 14.4622 3.44977L13.3874 9.46577C13.3874 9.46585 13.3874 9.46593 13.3874 9.46602C13.3834 9.48722 13.3657 9.50156 13.3451 9.50156L13.3441 9.50156L5.58165 9.51563L5.27075 9.51619L5.13373 9.79527L4.66655 10.7468ZM4.77796 3.45313L4.15956 3.45109L4.28705 4.0562L5.33548 9.03276L5.41926 9.43041L5.82563 9.42969L12.8928 9.41719L13.3107 9.41645L13.3841 9.00509L14.2654 4.07072L14.37 3.48478L13.7748 3.48282L4.77796 3.45313ZM5.29662 13.0328C5.29662 13.5808 5.74235 14.0266 6.29037 14.0266C6.55393 14.0266 6.80669 13.9219 6.99306 13.7355C7.17942 13.5491 7.28412 13.2964 7.28412 13.0328C7.28412 12.4848 6.83839 12.0391 6.29037 12.0391C5.74235 12.0391 5.29662 12.4848 5.29662 13.0328ZM10.3763 13.0328C10.3763 13.5808 10.822 14.0266 11.3701 14.0266C11.6336 14.0266 11.8864 13.9219 12.0727 13.7355C12.2591 13.5491 12.3638 13.2964 12.3638 13.0328C12.3638 12.4848 11.9181 12.0391 11.3701 12.0391C10.822 12.0391 10.3763 12.4848 10.3763 13.0328Z" fill="#8C8C8C" stroke="black"/>
</svg>
